<svg width="1200" height="800" viewBox="0 0 1200 800" fill="none" xmlns="http://www.w3.org/2000/svg">
  <rect width="1200" height="800" fill="#06090f"/>
  <circle cx="170" cy="100" r="260" fill="#a855f7" opacity="0.22"/>
  <circle cx="1030" cy="120" r="260" fill="#f59e0b" opacity="0.18"/>
  <circle cx="850" cy="760" r="360" fill="#2563eb" opacity="0.12"/>
  <g opacity="0.18">
    <path d="M0 160H1200M0 320H1200M0 480H1200M0 640H1200" stroke="#fbbf24" stroke-width="1"/>
    <path d="M160 0V800M320 0V800M480 0V800M640 0V800M800 0V800M960 0V800" stroke="#fbbf24" stroke-width="1"/>
  </g>
  <rect x="72" y="70" width="1056" height="660" rx="44" fill="#0b1220" fill-opacity="0.86" stroke="#f59e0b" stroke-opacity="0.22" stroke-width="2"/>
  <text x="108" y="150" fill="#fbbf24" font-family="ui-monospace, SFMono-Regular, Menlo, monospace" font-size="30" letter-spacing="3">ARCA EXPLAINS</text>
  <text x="108" y="255" fill="#f8fafc" font-family="Inter, Sora, system-ui, sans-serif" font-size="74" font-weight="800">Farcaster fork</text>
  <text x="108" y="335" fill="#f8fafc" font-family="Inter, Sora, system-ui, sans-serif" font-size="74" font-weight="800">reward reality check</text>
  <text x="108" y="430" fill="#cbd5e1" font-family="Inter, Sora, system-ui, sans-serif" font-size="36">Not official Farcaster/Neynar.</text>
  <text x="108" y="485" fill="#cbd5e1" font-family="Inter, Sora, system-ui, sans-serif" font-size="36">Not raw cast count.</text>
  <text x="108" y="540" fill="#cbd5e1" font-family="Inter, Sora, system-ui, sans-serif" font-size="36">Hypersnap retro allocation factors, explained.</text>
  <rect x="108" y="600" width="430" height="70" rx="20" fill="#f59e0b" fill-opacity="0.16" stroke="#f59e0b" stroke-opacity="0.38"/>
  <text x="138" y="646" fill="#fcd34d" font-family="Inter, Sora, system-ui, sans-serif" font-size="30" font-weight="700">Open the snap →</text>
  <text x="842" y="674" fill="#94a3b8" font-family="ui-monospace, SFMono-Regular, Menlo, monospace" font-size="24">arcabot.ai</text>
</svg>
